<svg xmlns="http://www.w3.org/2000/svg" viewBox="0 0 100 100" role="img" aria-label="Pilka nozna">
  <circle cx="50" cy="50" r="46" fill="#fff" stroke="#111827" stroke-width="5"/>
  <g stroke="#111827" stroke-width="4" stroke-linejoin="round" stroke-linecap="round">
    <polygon points="50,29 67,41 61,62 39,62 33,41" fill="#111827"/>
    <polygon points="23,18 39,11 50,22 43,35 27,36 17,28" fill="#111827"/>
    <polygon points="77,18 61,11 50,22 57,35 73,36 83,28" fill="#111827"/>
    <polygon points="17,68 29,55 39,62 39,78 25,84" fill="#111827"/>
    <polygon points="83,68 71,55 61,62 61,78 75,84" fill="#111827"/>
    <polygon points="50,80 61,78 75,84 65,95 50,97 35,95 25,84 39,78" fill="#111827"/>
    <path d="M50 29 50 22M67 41 73 36M61 62 71 55M39 62 29 55M33 41 27 36" fill="none"/>
    <path d="M39 11C46 8 54 8 61 11M17 28C11 37 8 46 9 56M83 28C89 37 92 46 91 56M25 84C31 90 39 94 50 97M75 84C69 90 61 94 50 97" fill="none"/>
  </g>
</svg>
